<svg width="160" height="28" viewBox="0 0 160 28" fill="none" xmlns="http://www.w3.org/2000/svg">
<path d="M4.44687 19V5.7H6.95487V10.982H7.29687L11.6099 5.7H14.8209L9.27287 12.255L15.0109 19H11.7049L7.29687 13.604H6.95487V19H4.44687ZM20.6221 19.266C19.6848 19.266 18.8424 19.076 18.0951 18.696C17.3478 18.316 16.7588 17.765 16.3281 17.043C15.8974 16.321 15.6821 15.4533 15.6821 14.44V14.136C15.6821 13.1227 15.8974 12.255 16.3281 11.533C16.7588 10.811 17.3478 10.26 18.0951 9.88C18.8424 9.5 19.6848 9.31 20.6221 9.31C21.5594 9.31 22.4018 9.5 23.1491 9.88C23.8964 10.26 24.4854 10.811 24.9161 11.533C25.3468 12.255 25.5621 13.1227 25.5621 14.136V14.44C25.5621 15.4533 25.3468 16.321 24.9161 17.043C24.4854 17.765 23.8964 18.316 23.1491 18.696C22.4018 19.076 21.5594 19.266 20.6221 19.266ZM20.6221 17.138C21.3568 17.138 21.9648 16.9037 22.4461 16.435C22.9274 15.9537 23.1681 15.2697 23.1681 14.383V14.193C23.1681 13.3063 22.9274 12.6287 22.4461 12.16C21.9774 11.6787 21.3694 11.438 20.6221 11.438C19.8874 11.438 19.2794 11.6787 18.7981 12.16C18.3168 12.6287 18.0761 13.3063 18.0761 14.193V14.383C18.0761 15.2697 18.3168 15.9537 18.7981 16.435C19.2794 16.9037 19.8874 17.138 20.6221 17.138ZM31.6859 19.266C30.4572 19.266 29.4502 19 28.6649 18.468C27.8796 17.936 27.4046 17.176 27.2399 16.188L29.4439 15.618C29.5326 16.0613 29.6782 16.4097 29.8809 16.663C30.0962 16.9163 30.3559 17.1 30.6599 17.214C30.9766 17.3153 31.3186 17.366 31.6859 17.366C32.2432 17.366 32.6549 17.271 32.9209 17.081C33.1869 16.8783 33.3199 16.6313 33.3199 16.34C33.3199 16.0487 33.1932 15.827 32.9399 15.675C32.6866 15.5103 32.2812 15.3773 31.7239 15.276L31.1919 15.181C30.5332 15.0543 29.9316 14.8833 29.3869 14.668C28.8422 14.44 28.4052 14.1297 28.0759 13.737C27.7466 13.3443 27.5819 12.8377 27.5819 12.217C27.5819 11.2797 27.9239 10.564 28.6079 10.07C29.2919 9.56333 30.1912 9.31 31.3059 9.31C32.3572 9.31 33.2312 9.54433 33.9279 10.013C34.6246 10.4817 35.0806 11.096 35.2959 11.856L33.0729 12.54C32.9716 12.0587 32.7626 11.7167 32.4459 11.514C32.1419 11.3113 31.7619 11.21 31.3059 11.21C30.8499 11.21 30.5016 11.2923 30.2609 11.457C30.0202 11.609 29.8999 11.8243 29.8999 12.103C29.8999 12.407 30.0266 12.635 30.2799 12.787C30.5332 12.9263 30.8752 13.034 31.3059 13.11L31.8379 13.205C32.5472 13.3317 33.1869 13.5027 33.7569 13.718C34.3396 13.9207 34.7956 14.2183 35.1249 14.611C35.4669 14.991 35.6379 15.5103 35.6379 16.169C35.6379 17.157 35.2769 17.9233 34.5549 18.468C33.8456 19 32.8892 19.266 31.6859 19.266ZM41.3268 19.152C40.5921 19.152 39.9461 18.9873 39.3888 18.658C38.8441 18.316 38.4198 17.8473 38.1158 17.252C37.8118 16.6567 37.6598 15.9727 37.6598 15.2V9.576H40.0538V15.01C40.0538 15.7193 40.2248 16.2513 40.5668 16.606C40.9214 16.9607 41.4218 17.138 42.0678 17.138C42.8024 17.138 43.3724 16.8973 43.7778 16.416C44.1831 15.922 44.3858 15.238 44.3858 14.364V9.576H46.7798V19H44.4238V17.765H44.0818C43.9298 18.0817 43.6448 18.392 43.2268 18.696C42.8088 19 42.1754 19.152 41.3268 19.152ZM49.4438 19V5.7H51.8378V13.053H52.1798L55.2958 9.576H58.4118L54.0608 14.136L58.5638 19H55.4858L52.1798 15.257H51.8378V19H49.4438ZM63.8872 19.266C62.9499 19.266 62.1202 19.0697 61.3982 18.677C60.6889 18.2717 60.1315 17.708 59.7262 16.986C59.3335 16.2513 59.1372 15.39 59.1372 14.402V14.174C59.1372 13.186 59.3335 12.331 59.7262 11.609C60.1189 10.8743 60.6699 10.3107 61.3792 9.918C62.0885 9.51267 62.9119 9.31 63.8492 9.31C64.7739 9.31 65.5782 9.519 66.2622 9.937C66.9462 10.3423 67.4782 10.9123 67.8582 11.647C68.2382 12.369 68.4282 13.2113 68.4282 14.174V14.991H61.5692C61.5945 15.637 61.8352 16.1627 62.2912 16.568C62.7472 16.9733 63.3045 17.176 63.9632 17.176C64.6345 17.176 65.1285 17.0303 65.4452 16.739C65.7619 16.4477 66.0025 16.1247 66.1672 15.77L68.1242 16.796C67.9469 17.1253 67.6872 17.4863 67.3452 17.879C67.0159 18.259 66.5725 18.5883 66.0152 18.867C65.4579 19.133 64.7485 19.266 63.8872 19.266ZM61.5882 13.205H65.9962C65.9455 12.6603 65.7239 12.2233 65.3312 11.894C64.9512 11.5647 64.4509 11.4 63.8302 11.4C63.1842 11.4 62.6712 11.5647 62.2912 11.894C61.9112 12.2233 61.6769 12.6603 61.5882 13.205ZM77.81 19V7.98H73.934V5.7H84.194V7.98H80.318V19H77.81ZM88.4907 19.266C87.5534 19.266 86.7237 19.0697 86.0017 18.677C85.2924 18.2717 84.735 17.708 84.3297 16.986C83.937 16.2513 83.7407 15.39 83.7407 14.402V14.174C83.7407 13.186 83.937 12.331 84.3297 11.609C84.7224 10.8743 85.2734 10.3107 85.9827 9.918C86.692 9.51267 87.5154 9.31 88.4527 9.31C89.3774 9.31 90.1817 9.519 90.8657 9.937C91.5497 10.3423 92.0817 10.9123 92.4617 11.647C92.8417 12.369 93.0317 13.2113 93.0317 14.174V14.991H86.1727C86.198 15.637 86.4387 16.1627 86.8947 16.568C87.3507 16.9733 87.908 17.176 88.5667 17.176C89.238 17.176 89.732 17.0303 90.0487 16.739C90.3654 16.4477 90.606 16.1247 90.7707 15.77L92.7277 16.796C92.5504 17.1253 92.2907 17.4863 91.9487 17.879C91.6194 18.259 91.176 18.5883 90.6187 18.867C90.0614 19.133 89.352 19.266 88.4907 19.266ZM86.1917 13.205H90.5997C90.549 12.6603 90.3274 12.2233 89.9347 11.894C89.5547 11.5647 89.0544 11.4 88.4337 11.4C87.7877 11.4 87.2747 11.5647 86.8947 11.894C86.5147 12.2233 86.2804 12.6603 86.1917 13.205ZM95.1625 19V9.576H97.5185V10.602H97.8605C98.0252 10.2853 98.2975 10.013 98.6775 9.785C99.0575 9.54433 99.5579 9.424 100.179 9.424C100.85 9.424 101.388 9.557 101.794 9.823C102.199 10.0763 102.509 10.412 102.725 10.83H103.067C103.282 10.4247 103.586 10.089 103.979 9.823C104.371 9.557 104.929 9.424 105.651 9.424C106.233 9.424 106.759 9.55067 107.228 9.804C107.709 10.0447 108.089 10.4183 108.368 10.925C108.659 11.419 108.805 12.046 108.805 12.806V19H106.411V12.977C106.411 12.4577 106.278 12.0713 106.012 11.818C105.746 11.552 105.372 11.419 104.891 11.419C104.346 11.419 103.922 11.5963 103.618 11.951C103.326 12.293 103.181 12.787 103.181 13.433V19H100.787V12.977C100.787 12.4577 100.654 12.0713 100.388 11.818C100.122 11.552 99.7479 11.419 99.2665 11.419C98.7219 11.419 98.2975 11.5963 97.9935 11.951C97.7022 12.293 97.5565 12.787 97.5565 13.433V19H95.1625ZM111.379 22.8V9.576H113.735V10.716H114.077C114.293 10.3487 114.628 10.0257 115.084 9.747C115.54 9.45567 116.193 9.31 117.041 9.31C117.801 9.31 118.504 9.5 119.15 9.88C119.796 10.2473 120.316 10.792 120.708 11.514C121.101 12.236 121.297 13.11 121.297 14.136V14.44C121.297 15.466 121.101 16.34 120.708 17.062C120.316 17.784 119.796 18.335 119.15 18.715C118.504 19.0823 117.801 19.266 117.041 19.266C116.471 19.266 115.99 19.1963 115.597 19.057C115.217 18.9303 114.907 18.7657 114.666 18.563C114.438 18.3477 114.255 18.1323 114.115 17.917H113.773V22.8H111.379ZM116.319 17.176C117.067 17.176 117.681 16.9417 118.162 16.473C118.656 15.9917 118.903 15.295 118.903 14.383V14.193C118.903 13.281 118.656 12.5907 118.162 12.122C117.668 11.6407 117.054 11.4 116.319 11.4C115.585 11.4 114.97 11.6407 114.476 12.122C113.982 12.5907 113.735 13.281 113.735 14.193V14.383C113.735 15.295 113.982 15.9917 114.476 16.473C114.97 16.9417 115.585 17.176 116.319 17.176ZM123.496 19V5.7H125.89V19H123.496ZM131.468 19.266C130.797 19.266 130.195 19.152 129.663 18.924C129.131 18.6833 128.707 18.3413 128.39 17.898C128.086 17.442 127.934 16.891 127.934 16.245C127.934 15.599 128.086 15.0607 128.39 14.63C128.707 14.1867 129.138 13.8573 129.682 13.642C130.24 13.414 130.873 13.3 131.582 13.3H134.166V12.768C134.166 12.3247 134.027 11.9637 133.748 11.685C133.47 11.3937 133.026 11.248 132.418 11.248C131.823 11.248 131.38 11.3873 131.088 11.666C130.797 11.932 130.607 12.2803 130.518 12.711L128.314 11.97C128.466 11.4887 128.707 11.0517 129.036 10.659C129.378 10.2537 129.828 9.93067 130.385 9.69C130.955 9.43667 131.646 9.31 132.456 9.31C133.698 9.31 134.679 9.62033 135.401 10.241C136.123 10.8617 136.484 11.761 136.484 12.939V16.454C136.484 16.834 136.662 17.024 137.016 17.024H137.776V19H136.18C135.712 19 135.325 18.886 135.021 18.658C134.717 18.43 134.565 18.126 134.565 17.746V17.727H134.204C134.154 17.879 134.04 18.0817 133.862 18.335C133.685 18.5757 133.406 18.791 133.026 18.981C132.646 19.171 132.127 19.266 131.468 19.266ZM131.886 17.328C132.558 17.328 133.102 17.1443 133.52 16.777C133.951 16.397 134.166 15.8967 134.166 15.276V15.086H131.753C131.31 15.086 130.962 15.181 130.708 15.371C130.455 15.561 130.328 15.827 130.328 16.169C130.328 16.511 130.461 16.7897 130.727 17.005C130.993 17.2203 131.38 17.328 131.886 17.328ZM142.45 19C141.83 19 141.323 18.81 140.93 18.43C140.55 18.0373 140.36 17.518 140.36 16.872V11.552H138.004V9.576H140.36V6.65H142.754V9.576H145.338V11.552H142.754V16.454C142.754 16.834 142.932 17.024 143.286 17.024H145.11V19H142.45ZM151.465 19.266C150.528 19.266 149.698 19.0697 148.976 18.677C148.267 18.2717 147.71 17.708 147.304 16.986C146.912 16.2513 146.715 15.39 146.715 14.402V14.174C146.715 13.186 146.912 12.331 147.304 11.609C147.697 10.8743 148.248 10.3107 148.957 9.918C149.667 9.51267 150.49 9.31 151.427 9.31C152.352 9.31 153.156 9.519 153.84 9.937C154.524 10.3423 155.056 10.9123 155.436 11.647C155.816 12.369 156.006 13.2113 156.006 14.174V14.991H149.147C149.173 15.637 149.413 16.1627 149.869 16.568C150.325 16.9733 150.883 17.176 151.541 17.176C152.213 17.176 152.707 17.0303 153.023 16.739C153.34 16.4477 153.581 16.1247 153.745 15.77L155.702 16.796C155.525 17.1253 155.265 17.4863 154.923 17.879C154.594 18.259 154.151 18.5883 153.593 18.867C153.036 19.133 152.327 19.266 151.465 19.266ZM149.166 13.205H153.574C153.524 12.6603 153.302 12.2233 152.909 11.894C152.529 11.5647 152.029 11.4 151.408 11.4C150.762 11.4 150.249 11.5647 149.869 11.894C149.489 12.2233 149.255 12.6603 149.166 13.205Z" fill="black"/>
</svg>
