<svg width="256" height="256" viewBox="0 0 256 256" fill="none" xmlns="http://www.w3.org/2000/svg">
<path d="M128 16c-61.856 0-112 50.144-112 112s50.144 112 112 112 112-50.144 112-112S189.856 16 128 16z" fill="#336791"/>
<path d="M128 32c53.019 0 96 42.981 96 96s-42.981 96-96 96-96-42.981-96-96 42.981-96 96-96z" fill="white"/>
<path d="M96 80c0-8.837 7.163-16 16-16h32c8.837 0 16 7.163 16 16v96c0 8.837-7.163 16-16 16h-32c-8.837 0-16-7.163-16-16V80z" fill="#336791"/>
<path d="M112 96h16v64h-16V96z" fill="white"/>
<path d="M80 112h96v32H80v-32z" fill="#336791"/>
<path d="M96 128h64v16H96v-16z" fill="white"/>
</svg>
