<svg viewBox="0 0 24 24" fill="none" xmlns="http://www.w3.org/2000/svg">
  <path d="M23.111 5.441c-.777-2.827-2.982-4.014-5.952-4.014-1.906 0-3.812.777-5.159 2.127C10.653 2.204 8.747 1.427 6.841 1.427c-2.97 0-5.175 1.187-5.952 4.014C.112 8.268.889 11.238 2.795 13.365c.777 1.35 1.906 2.127 3.046 2.127.777 0 1.554-.388 2.127-.777.777.777 1.906 1.35 3.046 1.35s2.269-.573 3.046-1.35c.573.388 1.35.777 2.127.777 1.14 0 2.269-.777 3.046-2.127 1.906-2.127 2.683-5.097 1.906-7.924z" fill="#336791"/>
</svg>
