<svg width="228" height="228" viewBox="0 0 228 228" fill="none" xmlns="http://www.w3.org/2000/svg">
<path d="M114 159.5C140.234 159.5 161.5 138.234 161.5 112C161.5 85.7665 140.234 64.5 114 64.5C87.7665 64.5 66.5 85.7665 66.5 112C66.5 138.234 87.7665 159.5 114 159.5Z" fill="#61DAFB"/>
<path d="M114 175.5C165.915 175.5 208 147.405 208 112C208 76.5949 165.915 48.5 114 48.5C62.0852 48.5 20 76.5949 20 112C20 147.405 62.0852 175.5 114 175.5Z" stroke="#61DAFB" stroke-width="8"/>
<path d="M85.5 143.75C111.415 189.155 153.5 217.25 189 199.75C224.5 182.25 234.5 132.25 208.5 86.75C182.5 41.25 140.415 13.155 105 30.75C69.5 48.25 59.5 98.25 85.5 143.75Z" stroke="#61DAFB" stroke-width="8"/>
<path d="M85.5 80.25C59.585 125.655 69.585 175.655 105 193.25C140.415 210.845 182.5 182.75 208.5 137.25C234.5 91.75 224.5 41.75 189 24.25C153.5 6.75 111.415 34.845 85.5 80.25Z" stroke="#61DAFB" stroke-width="8"/>
</svg>

