<svg width="256" height="256" viewBox="0 0 256 256" fill="none" xmlns="http://www.w3.org/2000/svg">
<rect width="256" height="256" rx="60" fill="#362D59"/>
<path d="M128 48c44.183 0 80 35.817 80 80s-35.817 80-80 80-80-35.817-80-80 35.817-80 80-80z" fill="white"/>
<path d="M128 80c26.51 0 48 21.49 48 48s-21.49 48-48 48-48-21.49-48-48 21.49-48 48-48z" fill="#362D59"/>
<path d="M128 96c17.673 0 32 14.327 32 32s-14.327 32-32 32-32-14.327-32-32 14.327-32 32-32z" fill="white"/>
<path d="M128 112c8.837 0 16 7.163 16 16s-7.163 16-16 16-16-7.163-16-16 7.163-16 16-16z" fill="#362D59"/>
</svg>
