<svg width="256" height="256" viewBox="0 0 256 256" fill="none" xmlns="http://www.w3.org/2000/svg">
<rect width="256" height="256" rx="60" fill="#3178C6"/>
<path d="M56.612 128.85l-.081 10.483h33.32v94.68h23.568v-94.68h33.321v-10.28c0-5.69-.122-10.444-.284-10.566-.122-.162-20.4-.244-44.983-.244l-44.74.122-.121 10.485z" fill="white"/>
<path d="M149.955 73.378c6.364-1.417 13.349-2.044 21.733-1.899 9.637.162 16.54 2.317 20.84 6.364 3.294 2.998 4.26 5.795 4.26 12.253 0 5.874-1.05 9.293-3.454 11.815-1.899 1.982-4.728 3.518-7.41 4.062l-1.899.405v1.346c0 .975.122 1.346 1.024 1.346.649 0 1.775-.325 2.424-.649 1.775-1.024 4.318-3.803 5.795-6.364 2.317-4.062 3.367-8.936 3.367-15.341 0-8.774-1.571-14.648-4.931-18.710-3.803-4.931-9.516-7.168-18.127-7.168-3.294 0-8.936.568-10.322 1.024-.405.162-.568.325-.568.649 0 .405.162.568.649.568.405 0 1.024-.081 1.417-.162z" fill="white"/>
<path d="M206.567 73.378c0-2.317-.325-4.062-1.024-5.795-1.775-4.318-5.795-7.168-11.815-8.449-3.294-.649-8.936-.649-12.23 0-6.02 1.281-10.04 4.131-11.815 8.449-.649 1.733-1.024 3.478-1.024 5.795v94.68h23.568v-94.68z" fill="white"/>
</svg>
